<svg id="Слой_2" data-name="Слой 2" xmlns="http://www.w3.org/2000/svg" viewBox="0 0 304.33 369.71"><title>pony</title><path d="M409.75,273.62a3.23,3.23,0,0,0-1.48-.57c-10.4-1.25-9-3.16-9-3.16,4.52-6.87,3-14.41,1.48-18.64a11.79,11.79,0,0,0-4-5.47c-18.84-14-50.23-9.29-56.73-8.12-.88.16-1.75.25-2.64.34-21.64,2.16-44.07,29.93-51.36,39.74a22.92,22.92,0,0,0-3.06,5.89c-1.7,4.69-5.14,2-5.14,2-1.82-1.61-10.13-2.74-13.29-3.11a11.54,11.54,0,0,0-2.35,0c-21.46,2.15-24.36,16.15-24.36,16.15-8.5,0-9-2-9-2,10.25-15.5,3.5-21.75,3.5-21.75,24.25,3.75,32.25-7.9,32.25-7.9,17.5-19.4,0-29.85,0-29.85-2.75-23.75-18.5-25.5-18.5-25.5,12.75-17.25,14.75-42.5,14.75-42.5.94-11.25-.8-11-1.72-10.12a9.25,9.25,0,0,1-2.21,1.57c-4.66,2.21-5.07-1.45-5.07-1.45-8-23-20.25-15.25-20.25-15.25,4.43-30.59-9.81-36.81-13.09-37.82a12.54,12.54,0,0,1-1.57-.63c-8-3.78-14.15,0-17.19,2.67a12.73,12.73,0,0,0-2.89,3.79c-5.47,10.87-7.76,6.74-7.76,6.74-4.25-3-8.75,0-8.75,0-7.25,3.75-8,1.5-8,1.5-4.55-7.52-14.24-11.49-19.65-13.2a19.43,19.43,0,0,0-7.69-.84c-19.28,1.87-25.91,15.79-25.91,15.79-10,20.75,11.25,39.5,11.25,39.5.25,6.25-4.75,1.25-4.75,1.25-10.25-.5-5.25,5.25-5.25,5.25,9.75,8.25,22.5,5.5,22.5,5.5,7-2.75,5.5-6,5.5-6-9-6-9.5-18.75-9.5-18.75s2.75-13.25,12.25-10.25,14.25,8.25,15.25,12a8.68,8.68,0,0,1-.75,6.5c-6.25,7.25-11.75,9.75-11.75,9.75-12,14-21.25,46.5-21.25,46.5a68.61,68.61,0,0,1-12.75,12.25c-2.75,11,1.5,17.25,1.5,17.25,13.25,31.75,39.75,34.75,39.75,34.75-4.31,37.63.29,58.36,2.48,65.56a11.66,11.66,0,0,0,2.95,4.89c10.58,10.46,19.7,16,24.91,18.71a19.32,19.32,0,0,1,8.14,7.95c2.44,4.48,5,9.64,5,9.64,3.25,4.5,4.25,21.25,4.25,21.25-3.25,38.5-26,50.25-30.25,53a3.7,3.7,0,0,0-1.9,3.9,4.86,4.86,0,0,0,3.69,3.86c66,16.33,67.46-3.76,67.46-3.76,1.25-23,3.75-34.5,3.75-34.5,6.25-23.75-2.75-50.75-2.75-50.75-.9-3.45.09-3.57,1-3.11a40.67,40.67,0,0,0,6.29,2.61c5.53,1.64,12.92,3.3,17.61,4.31a15.66,15.66,0,0,1,9.29,6,61.35,61.35,0,0,1,8,15.74,12.23,12.23,0,0,1,.6,5.3c-1.24,11.51-7.61,37.5-9.67,45.68a1.81,1.81,0,0,0,2,2.23c32.82-3.83,42.44-16,44.45-19.18a4.13,4.13,0,0,0,.56-1.45c5.51-29.6-2.62-47.59-2.62-47.59,17.29-2,24.49-5.31,27.45-7.5a4.3,4.3,0,0,0,1.71-4.07c-.79-5.85,2.34-5.43,2.34-5.43,11.75,1,14.11-1.37,14.11-1.37,13.75-6,1.39-23.63,1.39-23.63,17-2.75,32.5-21,32.5-21C432.12,292.47,413.71,276.5,409.75,273.62ZM300.47,305.31,293,294.14s7.79-24.34,42.26-21.94a5.37,5.37,0,0,1,2.86,1.05,5.5,5.5,0,0,1,1.38,1.39l.66,1.17S320.63,271.64,300.47,305.31Z" transform="translate(-115.87 -103.34)" fill="none" stroke="#9ba89c" stroke-miterlimit="10"/></svg>